<svg xmlns="http://www.w3.org/2000/svg" xmlns:xlink="http://www.w3.org/1999/xlink" width="500" zoomAndPan="magnify" viewBox="0 0 375 374.999991" height="500" preserveAspectRatio="xMidYMid meet" version="1.0"><defs><g/><clipPath id="id1"><path d="M 123.507812 59.503906 L 259.257812 59.503906 L 259.257812 185 L 123.507812 185 Z M 123.507812 59.503906 " clip-rule="nonzero"/></clipPath></defs><rect x="-37.5" width="450" fill="#ffffff" y="-37.499999" height="449.999989" fill-opacity="1"/><rect x="-37.5" width="450" fill="#ffffff" y="-37.499999" height="449.999989" fill-opacity="1"/><rect x="-37.5" width="450" fill="#ffffff" y="-37.499999" height="449.999989" fill-opacity="1"/><g clip-path="url(#id1)"><path fill="#d9d9d9" d="M 212.683594 171.984375 C 239.074219 167.222656 259.257812 143.953125 259.257812 116.191406 C 259.257812 85.019531 233.808594 59.511719 202.699219 59.511719 L 123.507812 59.511719 L 146.136719 82.183594 L 202.699219 82.183594 C 221.363281 82.183594 236.632812 97.488281 236.632812 116.195312 C 236.632812 134.898438 221.363281 150.203125 202.699219 150.203125 L 191.386719 150.203125 L 191.386719 184.816406 L 214.011719 171.726562 C 213.570312 171.816406 213.128906 171.902344 212.683594 171.984375 Z M 212.683594 171.984375 " fill-opacity="1" fill-rule="evenodd"/></g><path fill="#38b6ff" d="M 168.761719 172.871094 C 168.761719 157.757812 168.761719 142.644531 168.761719 127.527344 L 202.695312 127.527344 C 208.921875 127.527344 214.011719 122.429688 214.011719 116.195312 C 214.011719 109.957031 208.921875 104.859375 202.695312 104.859375 L 146.136719 104.859375 C 146.136719 127.527344 146.136719 150.203125 146.136719 172.871094 L 146.136719 210.996094 L 168.761719 197.90625 Z M 168.761719 172.871094 " fill-opacity="1" fill-rule="evenodd"/><g fill="#d9d9d9" fill-opacity="1"><g transform="translate(99.702574, 258.519001)"><g><path d="M 16.625 -15.265625 C 16.625 -13.085938 15.878906 -11.410156 14.390625 -10.234375 C 12.898438 -9.054688 10.769531 -8.46875 8 -8.46875 L 5.46875 -8.46875 L 5.46875 0 L 2.96875 0 L 2.96875 -21.546875 L 8.546875 -21.546875 C 13.929688 -21.546875 16.625 -19.453125 16.625 -15.265625 Z M 5.46875 -10.625 L 7.71875 -10.625 C 9.945312 -10.625 11.554688 -10.984375 12.546875 -11.703125 C 13.535156 -12.421875 14.03125 -13.570312 14.03125 -15.15625 C 14.03125 -16.582031 13.5625 -17.644531 12.625 -18.34375 C 11.695312 -19.039062 10.242188 -19.390625 8.265625 -19.390625 L 5.46875 -19.390625 Z M 5.46875 -10.625 "/></g></g></g><g fill="#d9d9d9" fill-opacity="1"><g transform="translate(117.87224, 258.519001)"><g><path d="M 16.53125 -8.09375 C 16.53125 -5.457031 15.867188 -3.398438 14.546875 -1.921875 C 13.222656 -0.441406 11.390625 0.296875 9.046875 0.296875 C 7.609375 0.296875 6.328125 -0.0390625 5.203125 -0.71875 C 4.078125 -1.394531 3.207031 -2.367188 2.59375 -3.640625 C 1.988281 -4.910156 1.6875 -6.394531 1.6875 -8.09375 C 1.6875 -10.726562 2.34375 -12.78125 3.65625 -14.25 C 4.976562 -15.71875 6.8125 -16.453125 9.15625 -16.453125 C 11.414062 -16.453125 13.207031 -15.695312 14.53125 -14.1875 C 15.863281 -12.6875 16.53125 -10.65625 16.53125 -8.09375 Z M 4.234375 -8.09375 C 4.234375 -6.03125 4.644531 -4.457031 5.46875 -3.375 C 6.289062 -2.289062 7.503906 -1.75 9.109375 -1.75 C 10.710938 -1.75 11.925781 -2.285156 12.75 -3.359375 C 13.582031 -4.441406 14 -6.019531 14 -8.09375 C 14 -10.144531 13.582031 -11.703125 12.75 -12.765625 C 11.925781 -13.835938 10.703125 -14.375 9.078125 -14.375 C 7.472656 -14.375 6.265625 -13.847656 5.453125 -12.796875 C 4.640625 -11.742188 4.234375 -10.175781 4.234375 -8.09375 Z M 4.234375 -8.09375 "/></g></g></g><g fill="#d9d9d9" fill-opacity="1"><g transform="translate(136.100852, 258.519001)"><g><path d="M 16.53125 -8.09375 C 16.53125 -5.457031 15.867188 -3.398438 14.546875 -1.921875 C 13.222656 -0.441406 11.390625 0.296875 9.046875 0.296875 C 7.609375 0.296875 6.328125 -0.0390625 5.203125 -0.71875 C 4.078125 -1.394531 3.207031 -2.367188 2.59375 -3.640625 C 1.988281 -4.910156 1.6875 -6.394531 1.6875 -8.09375 C 1.6875 -10.726562 2.34375 -12.78125 3.65625 -14.25 C 4.976562 -15.71875 6.8125 -16.453125 9.15625 -16.453125 C 11.414062 -16.453125 13.207031 -15.695312 14.53125 -14.1875 C 15.863281 -12.6875 16.53125 -10.65625 16.53125 -8.09375 Z M 4.234375 -8.09375 C 4.234375 -6.03125 4.644531 -4.457031 5.46875 -3.375 C 6.289062 -2.289062 7.503906 -1.75 9.109375 -1.75 C 10.710938 -1.75 11.925781 -2.285156 12.75 -3.359375 C 13.582031 -4.441406 14 -6.019531 14 -8.09375 C 14 -10.144531 13.582031 -11.703125 12.75 -12.765625 C 11.925781 -13.835938 10.703125 -14.375 9.078125 -14.375 C 7.472656 -14.375 6.265625 -13.847656 5.453125 -12.796875 C 4.640625 -11.742188 4.234375 -10.175781 4.234375 -8.09375 Z M 4.234375 -8.09375 "/></g></g></g><g fill="#d9d9d9" fill-opacity="1"><g transform="translate(154.329463, 258.519001)"><g><path d="M 0.640625 7.25 C -0.296875 7.25 -1.054688 7.128906 -1.640625 6.890625 L -1.640625 4.890625 C -0.960938 5.085938 -0.289062 5.1875 0.375 5.1875 C 1.132812 5.1875 1.691406 4.976562 2.046875 4.5625 C 2.410156 4.144531 2.59375 3.507812 2.59375 2.65625 L 2.59375 -16.15625 L 5.046875 -16.15625 L 5.046875 2.46875 C 5.046875 5.65625 3.578125 7.25 0.640625 7.25 Z M 2.390625 -20.53125 C 2.390625 -21.09375 2.523438 -21.503906 2.796875 -21.765625 C 3.078125 -22.023438 3.421875 -22.15625 3.828125 -22.15625 C 4.222656 -22.15625 4.5625 -22.019531 4.84375 -21.75 C 5.132812 -21.488281 5.28125 -21.082031 5.28125 -20.53125 C 5.28125 -19.976562 5.132812 -19.566406 4.84375 -19.296875 C 4.5625 -19.023438 4.222656 -18.890625 3.828125 -18.890625 C 3.421875 -18.890625 3.078125 -19.023438 2.796875 -19.296875 C 2.523438 -19.566406 2.390625 -19.976562 2.390625 -20.53125 Z M 2.390625 -20.53125 "/></g></g></g><g fill="#d9d9d9" fill-opacity="1"><g transform="translate(161.962783, 258.519001)"><g><path d="M 12.53125 0 L 12.046875 -2.296875 L 11.921875 -2.296875 C 11.117188 -1.285156 10.316406 -0.597656 9.515625 -0.234375 C 8.710938 0.117188 7.710938 0.296875 6.515625 0.296875 C 4.910156 0.296875 3.65625 -0.113281 2.75 -0.9375 C 1.84375 -1.769531 1.390625 -2.945312 1.390625 -4.46875 C 1.390625 -7.726562 4 -9.4375 9.21875 -9.59375 L 11.953125 -9.6875 L 11.953125 -10.6875 C 11.953125 -11.957031 11.675781 -12.894531 11.125 -13.5 C 10.582031 -14.101562 9.710938 -14.40625 8.515625 -14.40625 C 7.171875 -14.40625 5.648438 -13.988281 3.953125 -13.15625 L 3.203125 -15.03125 C 3.992188 -15.46875 4.863281 -15.804688 5.8125 -16.046875 C 6.757812 -16.296875 7.710938 -16.421875 8.671875 -16.421875 C 10.597656 -16.421875 12.023438 -15.992188 12.953125 -15.140625 C 13.878906 -14.285156 14.34375 -12.914062 14.34375 -11.03125 L 14.34375 0 Z M 7 -1.71875 C 8.519531 -1.71875 9.710938 -2.132812 10.578125 -2.96875 C 11.453125 -3.8125 11.890625 -4.984375 11.890625 -6.484375 L 11.890625 -7.9375 L 9.453125 -7.84375 C 7.503906 -7.769531 6.097656 -7.460938 5.234375 -6.921875 C 4.378906 -6.390625 3.953125 -5.5625 3.953125 -4.4375 C 3.953125 -3.550781 4.21875 -2.875 4.75 -2.40625 C 5.289062 -1.945312 6.039062 -1.71875 7 -1.71875 Z M 7 -1.71875 "/></g></g></g><g fill="#d9d9d9" fill-opacity="1"><g transform="translate(178.747252, 258.519001)"><g><path d="M 13.65625 0 L 13.65625 -10.453125 C 13.65625 -11.765625 13.351562 -12.742188 12.75 -13.390625 C 12.144531 -14.046875 11.207031 -14.375 9.9375 -14.375 C 8.25 -14.375 7.007812 -13.914062 6.21875 -13 C 5.4375 -12.082031 5.046875 -10.570312 5.046875 -8.46875 L 5.046875 0 L 2.59375 0 L 2.59375 -16.15625 L 4.578125 -16.15625 L 4.984375 -13.9375 L 5.09375 -13.9375 C 5.601562 -14.738281 6.304688 -15.359375 7.203125 -15.796875 C 8.109375 -16.234375 9.117188 -16.453125 10.234375 -16.453125 C 12.171875 -16.453125 13.628906 -15.984375 14.609375 -15.046875 C 15.597656 -14.109375 16.09375 -12.609375 16.09375 -10.546875 L 16.09375 0 Z M 13.65625 0 "/></g></g></g><g fill="#d9d9d9" fill-opacity="1"><g transform="translate(197.270586, 258.519001)"><g/></g></g><g fill="#d9d9d9" fill-opacity="1"><g transform="translate(205.110211, 258.519001)"><g><path d="M 16.625 -15.265625 C 16.625 -13.085938 15.878906 -11.410156 14.390625 -10.234375 C 12.898438 -9.054688 10.769531 -8.46875 8 -8.46875 L 5.46875 -8.46875 L 5.46875 0 L 2.96875 0 L 2.96875 -21.546875 L 8.546875 -21.546875 C 13.929688 -21.546875 16.625 -19.453125 16.625 -15.265625 Z M 5.46875 -10.625 L 7.71875 -10.625 C 9.945312 -10.625 11.554688 -10.984375 12.546875 -11.703125 C 13.535156 -12.421875 14.03125 -13.570312 14.03125 -15.15625 C 14.03125 -16.582031 13.5625 -17.644531 12.625 -18.34375 C 11.695312 -19.039062 10.242188 -19.390625 8.265625 -19.390625 L 5.46875 -19.390625 Z M 5.46875 -10.625 "/></g></g></g><g fill="#d9d9d9" fill-opacity="1"><g transform="translate(223.279878, 258.519001)"><g><path d="M 12.53125 0 L 12.046875 -2.296875 L 11.921875 -2.296875 C 11.117188 -1.285156 10.316406 -0.597656 9.515625 -0.234375 C 8.710938 0.117188 7.710938 0.296875 6.515625 0.296875 C 4.910156 0.296875 3.65625 -0.113281 2.75 -0.9375 C 1.84375 -1.769531 1.390625 -2.945312 1.390625 -4.46875 C 1.390625 -7.726562 4 -9.4375 9.21875 -9.59375 L 11.953125 -9.6875 L 11.953125 -10.6875 C 11.953125 -11.957031 11.675781 -12.894531 11.125 -13.5 C 10.582031 -14.101562 9.710938 -14.40625 8.515625 -14.40625 C 7.171875 -14.40625 5.648438 -13.988281 3.953125 -13.15625 L 3.203125 -15.03125 C 3.992188 -15.46875 4.863281 -15.804688 5.8125 -16.046875 C 6.757812 -16.296875 7.710938 -16.421875 8.671875 -16.421875 C 10.597656 -16.421875 12.023438 -15.992188 12.953125 -15.140625 C 13.878906 -14.285156 14.34375 -12.914062 14.34375 -11.03125 L 14.34375 0 Z M 7 -1.71875 C 8.519531 -1.71875 9.710938 -2.132812 10.578125 -2.96875 C 11.453125 -3.8125 11.890625 -4.984375 11.890625 -6.484375 L 11.890625 -7.9375 L 9.453125 -7.84375 C 7.503906 -7.769531 6.097656 -7.460938 5.234375 -6.921875 C 4.378906 -6.390625 3.953125 -5.5625 3.953125 -4.4375 C 3.953125 -3.550781 4.21875 -2.875 4.75 -2.40625 C 5.289062 -1.945312 6.039062 -1.71875 7 -1.71875 Z M 7 -1.71875 "/></g></g></g><g fill="#d9d9d9" fill-opacity="1"><g transform="translate(240.064347, 258.519001)"><g><path d="M 7.8125 -1.71875 C 8.238281 -1.71875 8.65625 -1.75 9.0625 -1.8125 C 9.46875 -1.882812 9.785156 -1.953125 10.015625 -2.015625 L 10.015625 -0.140625 C 9.753906 -0.015625 9.363281 0.0859375 8.84375 0.171875 C 8.332031 0.253906 7.867188 0.296875 7.453125 0.296875 C 4.328125 0.296875 2.765625 -1.347656 2.765625 -4.640625 L 2.765625 -14.25 L 0.453125 -14.25 L 0.453125 -15.4375 L 2.765625 -16.453125 L 3.796875 -19.90625 L 5.21875 -19.90625 L 5.21875 -16.15625 L 9.90625 -16.15625 L 9.90625 -14.25 L 5.21875 -14.25 L 5.21875 -4.75 C 5.21875 -3.769531 5.445312 -3.019531 5.90625 -2.5 C 6.375 -1.976562 7.007812 -1.71875 7.8125 -1.71875 Z M 7.8125 -1.71875 "/></g></g></g><g fill="#d9d9d9" fill-opacity="1"><g transform="translate(250.718583, 258.519001)"><g><path d="M 9.421875 0.296875 C 7.035156 0.296875 5.148438 -0.425781 3.765625 -1.875 C 2.378906 -3.332031 1.6875 -5.351562 1.6875 -7.9375 C 1.6875 -10.539062 2.328125 -12.609375 3.609375 -14.140625 C 4.898438 -15.679688 6.625 -16.453125 8.78125 -16.453125 C 10.8125 -16.453125 12.414062 -15.785156 13.59375 -14.453125 C 14.769531 -13.117188 15.359375 -11.363281 15.359375 -9.1875 L 15.359375 -7.640625 L 4.234375 -7.640625 C 4.273438 -5.742188 4.75 -4.300781 5.65625 -3.3125 C 6.570312 -2.332031 7.851562 -1.84375 9.5 -1.84375 C 11.238281 -1.84375 12.960938 -2.207031 14.671875 -2.9375 L 14.671875 -0.75 C 13.804688 -0.375 12.988281 -0.109375 12.21875 0.046875 C 11.445312 0.210938 10.515625 0.296875 9.421875 0.296875 Z M 8.75 -14.40625 C 7.457031 -14.40625 6.425781 -13.976562 5.65625 -13.125 C 4.882812 -12.28125 4.429688 -11.113281 4.296875 -9.625 L 12.734375 -9.625 C 12.734375 -11.164062 12.390625 -12.347656 11.703125 -13.171875 C 11.015625 -13.992188 10.03125 -14.40625 8.75 -14.40625 Z M 8.75 -14.40625 "/></g></g></g><g fill="#d9d9d9" fill-opacity="1"><g transform="translate(267.650414, 258.519001)"><g><path d="M 5.046875 0 L 2.59375 0 L 2.59375 -22.9375 L 5.046875 -22.9375 Z M 5.046875 0 "/></g></g></g></svg>